<svg xmlns="http://www.w3.org/2000/svg" viewBox="0 0 1500 1500"><defs><style>.cls-1{fill:#fff;}.cls-2,.cls-3{fill:none;stroke:#4e342d;stroke-linecap:round;stroke-linejoin:round;}.cls-2{stroke-width:25px;}.cls-3{stroke-width:10px;}</style></defs><title>devices</title><g id="Layer_2" data-name="Layer 2"><g id="Layer_2-2" data-name="Layer 2"><rect class="cls-1" width="1500" height="1500"/><path class="cls-2" d="M808,1192.5H316.81a27.31,27.31,0,0,1-27.31-27.31V334.81a27.31,27.31,0,0,1,27.31-27.31H894.19a27.31,27.31,0,0,1,27.31,27.31V450"/><circle class="cls-3" cx="605.5" cy="1123.5" r="28"/><line class="cls-3" x1="808" y1="1063.5" x2="289.5" y2="1063.5"/><line class="cls-3" x1="289.5" y1="403.5" x2="921.5" y2="403.5"/><rect class="cls-2" x="858.5" y="501.5" width="352" height="691" rx="27.31" ry="27.31"/><circle class="cls-3" cx="1034.5" cy="1123.5" r="28"/><line class="cls-3" x1="1210.5" y1="1064" x2="858.5" y2="1064"/><line class="cls-3" x1="858.5" y1="598" x2="1210.5" y2="598"/><line class="cls-3" x1="530.5" y1="355.5" x2="679.5" y2="355.5"/><line class="cls-3" x1="972.5" y1="549.5" x2="1096.5" y2="549.5"/></g></g></svg>