<svg xmlns="http://www.w3.org/2000/svg" viewBox="0 0 1500 1500"><defs><style>.cls-1{fill:#fff;}.cls-2,.cls-3{fill:none;stroke:#4e342d;stroke-linecap:round;stroke-linejoin:round;}.cls-2{stroke-width:25px;}.cls-3{stroke-width:10px;}</style></defs><title>interests</title><g id="Layer_2" data-name="Layer 2"><g id="Layer_2-2" data-name="Layer 2"><rect class="cls-1" width="1500" height="1500"/><path class="cls-2" d="M626.08,291.57S487.85,340.11,464.64,518.43c0,0-23.22,76-5.28,140.33L374.95,763.23s-8.44,27.43,20,42.2l35.87,15.83-5.28,42.21s-10.55,12.66,13.72,21.1c0,0-19,12.67-2.11,32.71,0,0,16.89,11.61,5.28,52.76,0,0-21.1,64.36,83.35,76,0,0,81.25,14.77,106.57,26.38,0,0,65.42,47.48,67.53,160.38h426.28s-131.9-219.48-130.84-298.61c0,0-1-60.14,20.05-93.9,0,0,106.57-207.87,96-309.16,0,0-26.38-188.87-210-249C901.47,282.08,766.41,243,626.08,291.57Z"/><circle class="cls-3" cx="678.27" cy="501.52" r="53.35"/><circle class="cls-3" cx="926.52" cy="609.34" r="44.64"/><circle class="cls-3" cx="738.77" cy="741.27" r="29.94"/><polygon class="cls-3" points="703.58 610.85 676.01 628.82 649.18 609.77 616.42 612.86 601.52 583.53 571.07 571.04 571.51 538.14 550.35 512.94 566.03 484.01 559.01 451.86 586.33 433.53 595.05 401.8 627.77 398.27 650.24 374.23 680.85 386.31 711.91 375.46 733.4 400.38 765.95 405.21 773.4 437.26 799.98 456.67 791.68 488.51 806.19 518.04 784.04 542.38 783.17 575.27 752.25 586.53 736.19 615.25 703.58 610.85"/><polygon class="cls-3" points="948.62 704.8 924.55 720.48 901.12 703.85 872.52 706.55 859.51 680.94 832.93 670.04 833.31 641.31 814.84 619.31 828.52 594.05 822.39 565.98 846.25 549.98 853.87 522.27 882.43 519.19 902.05 498.2 928.77 508.75 955.9 499.28 974.66 521.03 1003.08 525.25 1009.58 553.24 1032.78 570.18 1025.54 597.98 1038.21 623.76 1018.87 645.01 1018.11 673.73 991.11 683.56 977.09 708.64 948.62 704.8"/><polygon class="cls-3" points="760.72 816.55 742.33 830.31 722.78 818.25 700.11 821.9 688.4 802.14 666.63 794.83 665.45 771.89 649.57 755.3 659.18 734.45 652.83 712.38 671.03 698.37 675.67 675.88 698.29 671.94 712.85 654.18 734.71 661.2 755.86 652.24 771.95 668.62 794.84 670.51 801.48 692.5 820.86 704.8 816.52 727.36 827.97 747.26 813.65 765.22 814.53 788.16 793.51 797.4 783.63 818.13 760.72 816.55"/></g></g></svg>