<svg xmlns="http://www.w3.org/2000/svg" viewBox="0 0 807.39 172.93"><defs><style>.cls-1{fill:#fff;}.cls-2{fill:#1d70b7;}.cls-3{fill:#29265b;}.cls-4{fill:#47acd9;}.cls-5{fill:#0089b8;}.cls-6{fill:#9ed0e7;}.cls-7{fill:#69c3ea;}</style></defs><title>logo</title><g id="Layer_2" data-name="Layer 2"><g id="Layer_2-2" data-name="Layer 2"><path class="cls-1" d="M228.42,47.53V78.87H264.3V47.53h13V122h-13V90.54H228.42V122h-13V47.53Z"/><path class="cls-1" d="M335.57,47.53V58.78H308.11V78.33h25.16V89.58H308.11v21.16h28.13V122H295.12V47.53Z"/><path class="cls-1" d="M364.36,47.53v63.2H393V122H351.37V47.53Z"/><path class="cls-1" d="M415.72,47.53v63.2h28.63V122H402.73V47.53Z"/><path class="cls-1" d="M485.7,46.57a38.67,38.67,0,0,1,19.2,4.77,35.14,35.14,0,0,1,13.6,13.75,40.63,40.63,0,0,1,.12,39.06A35.3,35.3,0,0,1,505,118a40.44,40.44,0,0,1-38.84-.08,35.44,35.44,0,0,1-13.59-13.78,39.23,39.23,0,0,1-4.87-19.37,39.86,39.86,0,0,1,4.87-19.24,35.19,35.19,0,0,1,13.42-14A38.35,38.35,0,0,1,485.7,46.57ZM461.46,84.78a28.27,28.27,0,0,0,3.1,13.32,22.46,22.46,0,0,0,8.63,9.17,24.23,24.23,0,0,0,12.51,3.25,22.88,22.88,0,0,0,17.38-7.19q6.81-7.19,6.81-18.54a28.63,28.63,0,0,0-3.07-13.35,22.17,22.17,0,0,0-8.65-9.19,25.8,25.8,0,0,0-25.12,0,21.94,21.94,0,0,0-8.58,9.17A29,29,0,0,0,461.46,84.78Z"/><path class="cls-1" d="M623.39,46.57a38.67,38.67,0,0,1,19.2,4.77,35.14,35.14,0,0,1,13.6,13.75,40.63,40.63,0,0,1,.12,39.06A35.3,35.3,0,0,1,642.74,118a40.44,40.44,0,0,1-38.84-.08,35.44,35.44,0,0,1-13.59-13.78,39.23,39.23,0,0,1-4.87-19.37,39.86,39.86,0,0,1,4.87-19.24,35.19,35.19,0,0,1,13.42-14A38.35,38.35,0,0,1,623.39,46.57ZM599.15,84.78a28.27,28.27,0,0,0,3.1,13.32,22.46,22.46,0,0,0,8.63,9.17,24.23,24.23,0,0,0,12.51,3.25,22.88,22.88,0,0,0,17.38-7.19q6.81-7.19,6.81-18.54a28.63,28.63,0,0,0-3.07-13.35,22.17,22.17,0,0,0-8.65-9.19,25.8,25.8,0,0,0-25.12,0,21.94,21.94,0,0,0-8.58,9.17A29,29,0,0,0,599.15,84.78Z"/><path class="cls-1" d="M555.6,46.57A36.36,36.36,0,0,1,574.51,52V64.8q-10.44-7-18.53-7-4.91,0-7.68,2.1a6.71,6.71,0,0,0-2.77,5.62q0,4.21,5.15,7.78,1.44,1.07,11.12,6,8.27,4.32,11.93,9.59a21.71,21.71,0,0,1,3.66,12.68q0,9.59-6.23,15.48T555,122.94a34.75,34.75,0,0,1-11.09-1.57A46.07,46.07,0,0,1,533.51,116V101.78q10.78,9.91,20.31,9.91a12.16,12.16,0,0,0,7.7-2.29,7.33,7.33,0,0,0,2.94-6.08q0-5.17-5.1-8.42-4.23-2.56-10.92-6.13-7.94-4-11.86-9.33a20.3,20.3,0,0,1-3.92-12.36q0-9.38,6.3-14.95T555.6,46.57Z"/><path class="cls-1" d="M699.59,47.53a36.54,36.54,0,0,1,18.67,4.74A32.68,32.68,0,0,1,731,65.6a40.73,40.73,0,0,1,4.52,19.29,40.22,40.22,0,0,1-4.55,19.37A32,32,0,0,1,718,117.34a39,39,0,0,1-19.2,4.64H672.44V47.53Zm-1.35,63.2q10.78,0,17.3-7.17t6.52-18.78q0-12-6.57-19t-17.68-7H684.43v52Z"/><path class="cls-1" d="M778.7,47.53,807.39,122H793.68l-7-18.12H757.82L751.32,122H737.71l27.72-74.45Zm-16.94,45.4h20.7L772.11,63.47Z"/><path class="cls-2" d="M42,86.26a99.5,99.5,0,0,1-3.17-56.55L6,86.46l33,57a99.46,99.46,0,0,1,3-57.24Z"/><path class="cls-3" d="M100.27,27.06a99.72,99.72,0,0,1,56.95-4L146.87,5.2H53L42.55,23.27a99.59,99.59,0,0,1,57.72,3.79Z"/><path class="cls-2" d="M158.55,86.26A99.64,99.64,0,0,1,162,141.53l31.85-55.07L162.15,31.61a99.51,99.51,0,0,1-3.6,54.65Z"/><path class="cls-3" d="M100.27,145.47a99.56,99.56,0,0,1-58,3.73L53,167.73h93.87l10.61-18.34a99.52,99.52,0,0,1-22.12,2.48A99,99,0,0,1,100.27,145.47Z"/><path class="cls-4" d="M149.87,0H50L0,86.46l50,86.46h99.87l50-86.46ZM148.6,170.73H51.27L2.54,86.46,51.27,2.2H148.6l48.73,84.26Z"/><path class="cls-5" d="M100.27,27.06a99.5,99.5,0,0,1,58.28,59.21,99.51,99.51,0,0,0,3.6-54.65l-4.93-8.53a99.72,99.72,0,0,0-56.95,4Z"/><path class="cls-5" d="M100.27,145.47A99.5,99.5,0,0,1,42,86.26a99.46,99.46,0,0,0-3,57.24l3.29,5.7a99.56,99.56,0,0,0,58-3.73Z"/><path class="cls-6" d="M164.4,119.89a99,99,0,0,0-5.85-33.62,99.5,99.5,0,0,1-58.28,59.21,99,99,0,0,0,35.09,6.39,99.52,99.52,0,0,0,22.12-2.48l4.54-7.85A99.43,99.43,0,0,0,164.4,119.89Z"/><path class="cls-6" d="M42,86.26a99.5,99.5,0,0,1,58.28-59.21,99.59,99.59,0,0,0-57.72-3.79l-3.73,6.45A99.5,99.5,0,0,0,42,86.26Z"/><path class="cls-1" d="M148.6,2.2H51.27L2.54,86.46l48.73,84.26H148.6l48.73-84.26Zm8.88,147.18-10.61,18.34H53L42.28,149.2,39,143.5l-33-57L38.82,29.72l3.73-6.45L53,5.2h93.87l10.34,17.88,4.93,8.53,31.72,54.85L162,141.53Z"/><path class="cls-7" d="M100.27,27.06A99.5,99.5,0,0,0,42,86.26a99.5,99.5,0,0,0,58.28,59.21,99.5,99.5,0,0,0,58.28-59.21A99.5,99.5,0,0,0,100.27,27.06Z"/><path class="cls-1" d="M125.95,56.69c4.74,0,9.3.34,13.69,3v9.48A22.54,22.54,0,0,0,126.23,65c-3.83,0-7.13,3.08-6.5,7.06.78,4.91,6.9,6.83,10.71,8.86,4,2.13,7.56,4.54,9.33,7.15a16.37,16.37,0,0,1,2.65,9.4A15.24,15.24,0,0,1,137.9,109c-3,2.91-7.59,4.32-12.37,4.32a24.61,24.61,0,0,1-8-1.16c-2.24-.78-4.75-1.11-7.54-3V98.6c5.2,4.9,10.1,5.35,14.7,5.35a10.3,10.3,0,0,0,5-1.22,5.3,5.3,0,0,0,2.55-2.87c.93-2.85-1.16-5.9-3.5-7.35q-3.07-1.9-7.91-4.54a23.62,23.62,0,0,1-8.59-6.91,15.29,15.29,0,0,1-2.84-9.16,14.2,14.2,0,0,1,4.56-11.08Q118.46,56.69,125.95,56.69Z"/><path class="cls-1" d="M70.2,57.46V80H99.1V57.46h8.74v54.92H99.1V88.62H70.2v23.76H61.46V57.46Z"/></g></g></svg>