<svg xmlns="http://www.w3.org/2000/svg" viewBox="0 0 1500 1500"><defs><style>.cls-1{fill:#fff;}.cls-2,.cls-3{fill:none;stroke:#4e342d;stroke-linecap:round;stroke-linejoin:round;}.cls-2{stroke-width:25px;}.cls-3{stroke-width:12px;}</style></defs><title>social</title><g id="Layer_2" data-name="Layer 2"><g id="Layer_2-2" data-name="Layer 2"><rect class="cls-1" width="1500" height="1500"/><circle class="cls-2" cx="463.5" cy="473.1" r="157"/><circle class="cls-3" cx="463.5" cy="480.1" r="44.5"/><circle class="cls-2" cx="1036.5" cy="601.1" r="157"/><circle class="cls-3" cx="1036.5" cy="608.1" r="44.5"/><circle class="cls-2" cx="602.5" cy="983.4" r="200.5"/><circle class="cls-3" cx="602.5" cy="963" r="66"/><line class="cls-2" x1="620.5" y1="487.1" x2="887.5" y2="548.1"/><line class="cls-2" x1="899.5" y1="679.1" x2="731.5" y2="828.1"/><path class="cls-3" d="M346.94,582.62c19.2-34.1,64.16-58,116.56-58,51,0,95,22.69,115,55.37"/><path class="cls-3" d="M919.94,710.62c19.2-34.1,64.16-58,116.56-58,51,0,95,22.69,115,55.37"/><path class="cls-3" d="M458.23,1122.62c15.85-53.07,74.43-92.46,144.27-92.46s128.42,39.39,144.27,92.46"/></g></g></svg>